<svg width="1300" height="980" viewBox="0 0 1300 980" xmlns="http://www.w3.org/2000/svg" font-family="'JetBrains Mono', 'Courier New', monospace">
<defs>
  <!-- arrowheads -->
  <marker id="arr-blue" markerWidth="8" markerHeight="6" refX="7" refY="3" orient="auto"><polygon points="0 0,8 3,0 6" fill="#2563eb"/></marker>
  <marker id="arr-orange" markerWidth="8" markerHeight="6" refX="7" refY="3" orient="auto"><polygon points="0 0,8 3,0 6" fill="#ea580c"/></marker>
  <marker id="arr-yellow" markerWidth="8" markerHeight="6" refX="7" refY="3" orient="auto"><polygon points="0 0,8 3,0 6" fill="#d97706"/></marker>
  <marker id="arr-green" markerWidth="8" markerHeight="6" refX="7" refY="3" orient="auto"><polygon points="0 0,8 3,0 6" fill="#059669"/></marker>
  <marker id="arr-cyan" markerWidth="8" markerHeight="6" refX="7" refY="3" orient="auto"><polygon points="0 0,8 3,0 6" fill="#0284c7"/></marker>
  <marker id="arr-purple" markerWidth="8" markerHeight="6" refX="7" refY="3" orient="auto"><polygon points="0 0,8 3,0 6" fill="#7c3aed"/></marker>
  <marker id="arr-pink" markerWidth="8" markerHeight="6" refX="7" refY="3" orient="auto"><polygon points="0 0,8 3,0 6" fill="#db2777"/></marker>
  <marker id="arr-slate" markerWidth="8" markerHeight="6" refX="7" refY="3" orient="auto"><polygon points="0 0,8 3,0 6" fill="#64748b"/></marker>

  <pattern id="dots" width="24" height="24" patternUnits="userSpaceOnUse">
    <circle cx="1" cy="1" r="0.9" fill="#94a3b8" opacity="0.22"/>
  </pattern>

  <!-- node gradients -->
  <linearGradient id="g-flutter" x1="0" y1="0" x2="0" y2="1">
    <stop offset="0%" stop-color="#eff6ff"/><stop offset="100%" stop-color="#dbeafe"/>
  </linearGradient>
  <linearGradient id="g-firebase" x1="0" y1="0" x2="0" y2="1">
    <stop offset="0%" stop-color="#fff7ed"/><stop offset="100%" stop-color="#ffedd5"/>
  </linearGradient>
  <linearGradient id="g-backend" x1="0" y1="0" x2="0" y2="1">
    <stop offset="0%" stop-color="#f0fdf4"/><stop offset="100%" stop-color="#dcfce7"/>
  </linearGradient>
  <linearGradient id="g-sql" x1="0" y1="0" x2="0" y2="1">
    <stop offset="0%" stop-color="#f0f9ff"/><stop offset="100%" stop-color="#e0f2fe"/>
  </linearGradient>
  <linearGradient id="g-firestore" x1="0" y1="0" x2="0" y2="1">
    <stop offset="0%" stop-color="#fffbeb"/><stop offset="100%" stop-color="#fef3c7"/>
  </linearGradient>
  <linearGradient id="g-ai" x1="0" y1="0" x2="0" y2="1">
    <stop offset="0%" stop-color="#fdf4ff"/><stop offset="100%" stop-color="#f3e8ff"/>
  </linearGradient>
  <linearGradient id="g-storage" x1="0" y1="0" x2="0" y2="1">
    <stop offset="0%" stop-color="#fff7ed"/><stop offset="100%" stop-color="#ffedd5"/>
  </linearGradient>
</defs>

<!-- BG -->
<rect width="1300" height="980" fill="#e2e8f0"/>
<rect width="1300" height="980" fill="url(#dots)"/>

<!-- ══════════════════════════════════════ -->
<!-- TITLE                                -->
<!-- ══════════════════════════════════════ -->
<text x="650" y="40" text-anchor="middle" font-size="23" font-weight="900" fill="#0f172a" letter-spacing="-1">
  <tspan fill="#0f172a">Safe</tspan><tspan fill="#db2777">match</tspan>
</text>
<text x="650" y="57" text-anchor="middle" font-size="9.5" fill="#64748b" letter-spacing="3">DATA FLOW DIAGRAM</text>

<!-- ══════════════════════════════════════ -->
<!-- FLOW LEGEND (top right)             -->
<!-- ══════════════════════════════════════ -->
<rect x="1030" y="70" width="248" height="178" rx="9" fill="#f8fafc" stroke="#cbd5e1" stroke-width="1.3"/>
<text x="1154" y="90" text-anchor="middle" font-size="10.5" font-weight="800" fill="#1e293b" letter-spacing="0.5">LEGEND</text>
<line x1="1044" y1="96" x2="1264" y2="96" stroke="#e2e8f0" stroke-width="1"/>

<line x1="1048" y1="114" x2="1090" y2="114" stroke="#ea580c" stroke-width="2" marker-end="url(#arr-orange)"/>
<text x="1100" y="118" font-size="9" fill="#334155">Auth flow</text>

<line x1="1048" y1="134" x2="1090" y2="134" stroke="#059669" stroke-width="2" marker-end="url(#arr-green)"/>
<text x="1100" y="138" font-size="9" fill="#334155">Profile / CRUD</text>

<line x1="1048" y1="154" x2="1090" y2="154" stroke="#d97706" stroke-width="2" marker-end="url(#arr-yellow)"/>
<text x="1100" y="158" font-size="9" fill="#334155">Image upload</text>

<line x1="1048" y1="174" x2="1090" y2="174" stroke="#0284c7" stroke-width="2" marker-end="url(#arr-cyan)"/>
<text x="1100" y="178" font-size="9" fill="#334155">Chat (real-time)</text>

<line x1="1048" y1="194" x2="1090" y2="194" stroke="#7c3aed" stroke-width="2" marker-end="url(#arr-purple)"/>
<text x="1100" y="198" font-size="9" fill="#334155">Matching + AI</text>

<line x1="1048" y1="214" x2="1090" y2="214" stroke="#2563eb" stroke-width="1.5" stroke-dasharray="5,3" marker-end="url(#arr-blue)"/>
<text x="1100" y="218" font-size="9" fill="#334155">Response / return</text>

<line x1="1048" y1="234" x2="1090" y2="234" stroke="#db2777" stroke-width="1.5" stroke-dasharray="4,3" marker-end="url(#arr-pink)"/>
<text x="1100" y="238" font-size="9" fill="#334155">Token verify</text>

<!-- ══════════════════════════════════════ -->
<!-- NODES                                -->
<!-- ══════════════════════════════════════ -->

<!-- Flutter App  cx=200 cy=360 -->
<rect x="60" y="282" width="246" height="162" rx="12" fill="url(#g-flutter)" stroke="#2563eb" stroke-width="2"/>
<rect x="60" y="282" width="246" height="32" rx="12" fill="rgba(37,99,235,0.1)"/>
<rect x="60" y="302" width="246" height="12" fill="rgba(37,99,235,0.1)"/>
<text x="183" y="303" text-anchor="middle" font-size="13" font-weight="800" fill="#1d4ed8">Flutter App</text>
<line x1="60" y1="314" x2="306" y2="314" stroke="rgba(37,99,235,0.15)" stroke-width="1"/>
<text x="76" y="331" font-size="9" fill="#1d4ed8">&#x25B8; UI + local state (Riverpod)</text>
<text x="76" y="346" font-size="9" fill="#1d4ed8">&#x25B8; Holds Firebase ID token</text>
<text x="76" y="361" font-size="9" fill="#1d4ed8">&#x25B8; Sends token on all API calls</text>
<text x="76" y="376" font-size="9" fill="#1d4ed8">&#x25B8; Real-time Firestore listener</text>
<text x="76" y="391" font-size="9" fill="#1d4ed8">&#x25B8; Direct upload to Firebase Storage</text>
<text x="76" y="411" font-size="8.5" fill="#93c5fd" font-style="italic">iOS &amp; Android</text>
<circle cx="294" cy="294" r="4" fill="#2563eb" opacity="0.7"/>

<!-- Firebase Auth  cx=560 cy=180 -->
<rect x="430" y="100" width="246" height="130" rx="12" fill="url(#g-firebase)" stroke="#ea580c" stroke-width="1.8"/>
<rect x="430" y="100" width="246" height="30" rx="12" fill="rgba(234,88,12,0.1)"/>
<rect x="430" y="118" width="246" height="12" fill="rgba(234,88,12,0.1)"/>
<text x="553" y="120" text-anchor="middle" font-size="13" font-weight="800" fill="#c2410c">Firebase Auth</text>
<line x1="430" y1="130" x2="676" y2="130" stroke="rgba(234,88,12,0.15)" stroke-width="1"/>
<text x="446" y="148" font-size="9" fill="#c2410c">&#x25B8; Issues ID tokens (JWT)</text>
<text x="446" y="163" font-size="9" fill="#c2410c">&#x25B8; OTP · Google · Apple</text>
<text x="446" y="178" font-size="9" fill="#c2410c">&#x25B8; Backend verifies via Admin SDK</text>
<text x="553" y="218" text-anchor="middle" font-size="8.5" fill="#fb923c" font-style="italic">identity only</text>

<!-- Firebase Storage  cx=200 cy=660 -->
<rect x="60" y="578" width="246" height="120" rx="12" fill="url(#g-storage)" stroke="#ea580c" stroke-width="1.8"/>
<rect x="60" y="578" width="246" height="30" rx="12" fill="rgba(234,88,12,0.1)"/>
<rect x="60" y="596" width="246" height="12" fill="rgba(234,88,12,0.1)"/>
<text x="183" y="598" text-anchor="middle" font-size="13" font-weight="800" fill="#c2410c">Firebase Storage</text>
<line x1="60" y1="608" x2="306" y2="608" stroke="rgba(234,88,12,0.15)" stroke-width="1"/>
<text x="76" y="625" font-size="9" fill="#c2410c">&#x25B8; Direct upload from Flutter</text>
<text x="76" y="640" font-size="9" fill="#c2410c">&#x25B8; Returns public / signed URL</text>
<text x="76" y="655" font-size="9" fill="#c2410c">&#x25B8; Firebase security rules</text>
<text x="183" y="685" text-anchor="middle" font-size="8.5" fill="#fb923c" font-style="italic">images never pass through backend</text>

<!-- Backend  cx=650 cy=430 -->
<rect x="490" y="312" width="296" height="230" rx="12" fill="url(#g-backend)" stroke="#059669" stroke-width="2.2"/>
<rect x="490" y="312" width="296" height="32" rx="12" fill="rgba(5,150,105,0.1)"/>
<rect x="490" y="332" width="296" height="12" fill="rgba(5,150,105,0.1)"/>
<text x="638" y="334" text-anchor="middle" font-size="13" font-weight="800" fill="#065f46">Backend</text>
<text x="638" y="349" text-anchor="middle" font-size="8.5" fill="#6ee7b7">Cloud Run · Spring Boot · Java 17</text>
<line x1="490" y1="356" x2="786" y2="356" stroke="rgba(5,150,105,0.15)" stroke-width="1"/>
<text x="506" y="374" font-size="9" fill="#047857">&#x25B8; Receives all authenticated API requests</text>
<text x="506" y="389" font-size="9" fill="#047857">&#x25B8; Verifies Firebase ID token on every call</text>
<text x="506" y="404" font-size="9" fill="#047857">&#x25B8; Orchestrates matching pipeline</text>
<text x="506" y="419" font-size="9" fill="#047857">&#x25B8; Calls AI provider via AiScoringPort</text>
<text x="506" y="434" font-size="9" fill="#047857">&#x25B8; Writes to Cloud SQL (source of truth)</text>
<text x="506" y="449" font-size="9" fill="#047857">&#x25B8; Syncs metadata to Firestore</text>
<text x="506" y="464" font-size="9" fill="#047857">&#x25B8; Triggers FCM push notifications</text>
<text x="506" y="479" font-size="9" fill="#047857">&#x25B8; Handles Stripe webhooks</text>
<text x="638" y="532" text-anchor="middle" font-size="8.5" fill="#6ee7b7" font-style="italic">all business logic lives here</text>

<!-- Cloud SQL  cx=650 cy=720 -->
<rect x="490" y="648" width="296" height="124" rx="12" fill="url(#g-sql)" stroke="#0284c7" stroke-width="1.8"/>
<rect x="490" y="648" width="296" height="30" rx="12" fill="rgba(2,132,199,0.1)"/>
<rect x="490" y="666" width="296" height="12" fill="rgba(2,132,199,0.1)"/>
<text x="638" y="668" text-anchor="middle" font-size="13" font-weight="800" fill="#0369a1">Cloud SQL</text>
<text x="638" y="682" text-anchor="middle" font-size="8.5" fill="#7dd3fc">PostgreSQL — source of truth</text>
<line x1="490" y1="688" x2="786" y2="688" stroke="rgba(2,132,199,0.15)" stroke-width="1"/>
<text x="506" y="706" font-size="9" fill="#0369a1">&#x25B8; Users · profiles · preferences</text>
<text x="506" y="721" font-size="9" fill="#0369a1">&#x25B8; Matches · batches · scores</text>
<text x="506" y="736" font-size="9" fill="#0369a1">&#x25B8; Payments · audit logs</text>
<text x="638" y="760" text-anchor="middle" font-size="8.5" fill="#7dd3fc" font-style="italic">private VPC · no public IP</text>

<!-- Firestore  cx=200 cy=850 (moved right a bit) -->
<rect x="60" y="810" width="246" height="124" rx="12" fill="url(#g-firestore)" stroke="#d97706" stroke-width="1.8"/>
<rect x="60" y="810" width="246" height="30" rx="12" fill="rgba(217,119,6,0.1)"/>
<rect x="60" y="828" width="246" height="12" fill="rgba(217,119,6,0.1)"/>
<text x="183" y="830" text-anchor="middle" font-size="13" font-weight="800" fill="#b45309">Firestore</text>
<text x="183" y="844" text-anchor="middle" font-size="8.5" fill="#fbbf24">NoSQL real-time</text>
<line x1="60" y1="850" x2="306" y2="850" stroke="rgba(217,119,6,0.15)" stroke-width="1"/>
<text x="76" y="868" font-size="9" fill="#b45309">&#x25B8; Chat messages · presence</text>
<text x="76" y="883" font-size="9" fill="#b45309">&#x25B8; Typing indicators · signals</text>
<text x="76" y="898" font-size="9" fill="#b45309">&#x25B8; Match events · read receipts</text>
<text x="183" y="924" text-anchor="middle" font-size="8.5" fill="#fbbf24" font-style="italic">real-time sync to Flutter</text>

<!-- AI Provider  cx=1060 cy=430 -->
<rect x="960" y="330" width="246" height="130" rx="12" fill="url(#g-ai)" stroke="#7c3aed" stroke-width="1.8"/>
<rect x="960" y="330" width="246" height="30" rx="12" fill="rgba(124,58,237,0.1)"/>
<rect x="960" y="348" width="246" height="12" fill="rgba(124,58,237,0.1)"/>
<text x="1083" y="350" text-anchor="middle" font-size="13" font-weight="800" fill="#6d28d9">AI Provider</text>
<text x="1083" y="365" text-anchor="middle" font-size="8.5" fill="#c084fc">OpenAI / Vertex AI</text>
<line x1="960" y1="372" x2="1206" y2="372" stroke="rgba(124,58,237,0.15)" stroke-width="1"/>
<text x="976" y="390" font-size="9" fill="#6d28d9">&#x25B8; Receives scoring prompts</text>
<text x="976" y="405" font-size="9" fill="#6d28d9">&#x25B8; Compatibility analysis</text>
<text x="976" y="420" font-size="9" fill="#6d28d9">&#x25B8; Content moderation</text>
<text x="976" y="435" font-size="9" fill="#6d28d9">&#x25B8; Returns structured scores</text>
<text x="1083" y="454" text-anchor="middle" font-size="8.5" fill="#c084fc" font-style="italic">AiScoringPort — swappable</text>

<!-- ══════════════════════════════════════════════════════════ -->
<!-- FLOW ARROWS                                             -->
<!-- ══════════════════════════════════════════════════════════ -->

<!-- ── 1. AUTH FLOW ── -->
<!-- Flutter → Firebase Auth (login) -->
<path d="M 306 310 Q 390 230 430 195" fill="none" stroke="#ea580c" stroke-width="2" marker-end="url(#arr-orange)"/>
<rect x="316" y="238" width="110" height="16" rx="3" fill="rgba(255,247,237,0.92)"/>
<text x="371" y="250" text-anchor="middle" font-size="8.5" fill="#c2410c" font-weight="700">login / OTP</text>

<!-- Firebase Auth → Flutter (token) -->
<path d="M 430 215 Q 380 260 306 330" fill="none" stroke="#ea580c" stroke-width="1.5" stroke-dasharray="5,3" marker-end="url(#arr-orange)"/>
<rect x="312" y="272" width="88" height="16" rx="3" fill="rgba(255,247,237,0.92)"/>
<text x="356" y="284" text-anchor="middle" font-size="8.5" fill="#c2410c">ID token</text>

<!-- Flutter → Backend (authenticated API) -->
<path d="M 306 360 L 490 390" fill="none" stroke="#059669" stroke-width="2" marker-end="url(#arr-green)"/>
<rect x="340" y="362" width="132" height="16" rx="3" fill="rgba(240,253,244,0.92)"/>
<text x="406" y="374" text-anchor="middle" font-size="8.5" fill="#047857" font-weight="700">API calls + token</text>

<!-- Backend → Firebase Auth (verify) -->
<path d="M 638 312 Q 638 260 620 230" fill="none" stroke="#db2777" stroke-width="1.5" stroke-dasharray="4,3" marker-end="url(#arr-pink)"/>
<rect x="644" y="267" width="96" height="16" rx="3" fill="rgba(253,242,248,0.92)"/>
<text x="692" y="279" text-anchor="middle" font-size="8.5" fill="#db2777">verify token</text>

<!-- ── 2. PROFILE / CRUD ── -->
<!-- Backend → Cloud SQL (write profile) -->
<line x1="638" y1="542" x2="638" y2="648" stroke="#059669" stroke-width="2" marker-end="url(#arr-green)"/>
<rect x="546" y="588" width="90" height="16" rx="3" fill="rgba(240,253,244,0.92)"/>
<text x="591" y="600" text-anchor="middle" font-size="8.5" fill="#047857" font-weight="700">read / write</text>

<!-- Backend → Flutter (response) -->
<path d="M 490 400 L 306 385" fill="none" stroke="#2563eb" stroke-width="1.5" stroke-dasharray="5,3" marker-end="url(#arr-blue)"/>
<rect x="344" y="380" width="96" height="16" rx="3" fill="rgba(239,246,255,0.92)"/>
<text x="392" y="392" text-anchor="middle" font-size="8.5" fill="#2563eb">response</text>

<!-- ── 3. IMAGE UPLOAD ── -->
<!-- Flutter → Firebase Storage -->
<line x1="183" y1="444" x2="183" y2="578" stroke="#d97706" stroke-width="2" marker-end="url(#arr-yellow)"/>
<rect x="108" y="500" width="108" height="16" rx="3" fill="rgba(255,251,235,0.92)"/>
<text x="162" y="512" text-anchor="middle" font-size="8.5" fill="#b45309" font-weight="700">upload image</text>

<!-- Firebase Storage → Flutter (URL) -->
<path d="M 216 578 L 224 444" fill="none" stroke="#d97706" stroke-width="1.5" stroke-dasharray="5,3" marker-end="url(#arr-yellow)"/>
<rect x="226" y="500" width="68" height="16" rx="3" fill="rgba(255,251,235,0.92)"/>
<text x="260" y="512" text-anchor="middle" font-size="8.5" fill="#b45309">image URL</text>

<!-- Flutter → Backend (send URL) -->
<path d="M 306 395 Q 420 430 490 420" fill="none" stroke="#d97706" stroke-width="1.5" stroke-dasharray="5,3" marker-end="url(#arr-yellow)"/>
<rect x="360" y="406" width="70" height="16" rx="3" fill="rgba(255,251,235,0.92)"/>
<text x="395" y="418" text-anchor="middle" font-size="8.5" fill="#b45309">send URL</text>

<!-- ── 4. CHAT ── -->
<!-- Flutter → Firestore (write message) -->
<path d="M 183 444 Q 162 628 183 810" fill="none" stroke="#0284c7" stroke-width="2" marker-end="url(#arr-cyan)"/>
<rect x="72" y="626" width="102" height="16" rx="3" fill="rgba(240,249,255,0.92)"/>
<text x="123" y="638" text-anchor="middle" font-size="8.5" fill="#0369a1" font-weight="700">write message</text>

<!-- Firestore → Flutter (real-time) -->
<path d="M 216 810 Q 238 640 218 444" fill="none" stroke="#0284c7" stroke-width="1.5" stroke-dasharray="5,3" marker-end="url(#arr-cyan)"/>
<rect x="222" y="626" width="92" height="16" rx="3" fill="rgba(240,249,255,0.92)"/>
<text x="268" y="638" text-anchor="middle" font-size="8.5" fill="#0369a1">real-time</text>

<!-- Backend → Firestore (metadata sync) -->
<path d="M 538 542 Q 440 700 306 860" fill="none" stroke="#059669" stroke-width="1.5" stroke-dasharray="5,3" marker-end="url(#arr-green)"/>
<rect x="360" y="700" width="110" height="16" rx="3" fill="rgba(240,253,244,0.92)"/>
<text x="415" y="712" text-anchor="middle" font-size="8.5" fill="#047857">metadata sync</text>

<!-- ── 5. MATCHING + AI ── -->
<!-- Backend → AI Provider (scoring) -->
<line x1="786" y1="430" x2="960" y2="410" stroke="#7c3aed" stroke-width="2" marker-end="url(#arr-purple)"/>
<rect x="838" y="408" width="82" height="16" rx="3" fill="rgba(253,244,255,0.92)"/>
<text x="879" y="420" text-anchor="middle" font-size="8.5" fill="#6d28d9" font-weight="700">score prompt</text>

<!-- AI Provider → Backend (score result) -->
<path d="M 960 450 L 786 460" fill="none" stroke="#7c3aed" stroke-width="1.5" stroke-dasharray="5,3" marker-end="url(#arr-purple)"/>
<rect x="830" y="446" width="80" height="16" rx="3" fill="rgba(253,244,255,0.92)"/>
<text x="870" y="458" text-anchor="middle" font-size="8.5" fill="#6d28d9">score result</text>

<!-- Backend → Firestore (push match event) -->
<path d="M 490 500 Q 380 660 306 870" fill="none" stroke="#7c3aed" stroke-width="1.5" stroke-dasharray="4,3" marker-end="url(#arr-purple)"/>
<rect x="340" y="680" width="100" height="16" rx="3" fill="rgba(253,244,255,0.92)"/>
<text x="390" y="692" text-anchor="middle" font-size="8.5" fill="#6d28d9">match event</text>

<!-- Backend → Flutter (match suggestions) -->
<path d="M 490 480 Q 400 480 306 420" fill="none" stroke="#7c3aed" stroke-width="1.5" stroke-dasharray="5,3" marker-end="url(#arr-purple)"/>
<rect x="336" y="444" width="114" height="16" rx="3" fill="rgba(253,244,255,0.92)"/>
<text x="393" y="456" text-anchor="middle" font-size="8.5" fill="#6d28d9">match suggestions</text>

<!-- ══════════════════════════════════════════════════════════ -->
<!-- FLOW LABELS (numbered swim-lane style, right column)    -->
<!-- ══════════════════════════════════════════════════════════ -->
<rect x="960" y="526" width="316" height="420" rx="10" fill="#f8fafc" stroke="#cbd5e1" stroke-width="1.4"/>
<rect x="960" y="526" width="316" height="32" rx="10" fill="#e2e8f0"/>
<rect x="960" y="546" width="316" height="12" fill="#e2e8f0"/>
<text x="1118" y="547" text-anchor="middle" font-size="11" font-weight="800" fill="#1e293b" letter-spacing="0.5">CORE FLOWS</text>
<line x1="974" y1="558" x2="1262" y2="558" stroke="#cbd5e1" stroke-width="1"/>

<!-- flow 1 auth -->
<rect x="974" y="566" width="18" height="18" rx="4" fill="#ffedd5" stroke="#ea580c" stroke-width="1.2"/>
<text x="983" y="579" text-anchor="middle" font-size="9" font-weight="800" fill="#c2410c">1</text>
<text x="1000" y="579" font-size="9" font-weight="700" fill="#c2410c">Authentication</text>
<text x="1000" y="592" font-size="8.5" fill="#475569">Flutter &#x2192; Firebase Auth &#x2192; Flutter (token)</text>
<text x="1000" y="605" font-size="8.5" fill="#475569">Flutter &#x2192; Backend (token in header)</text>
<text x="1000" y="618" font-size="8.5" fill="#475569">Backend &#x2192; Firebase Auth (verify)</text>

<line x1="974" y1="628" x2="1262" y2="628" stroke="#f1f5f9" stroke-width="1"/>

<!-- flow 2 profile -->
<rect x="974" y="636" width="18" height="18" rx="4" fill="#dcfce7" stroke="#059669" stroke-width="1.2"/>
<text x="983" y="649" text-anchor="middle" font-size="9" font-weight="800" fill="#065f46">2</text>
<text x="1000" y="649" font-size="9" font-weight="700" fill="#047857">Profile / Preferences</text>
<text x="1000" y="662" font-size="8.5" fill="#475569">Flutter &#x2192; Backend &#x2192; Cloud SQL</text>
<text x="1000" y="675" font-size="8.5" fill="#475569">Backend &#x2192; Flutter (confirmation)</text>

<line x1="974" y1="685" x2="1262" y2="685" stroke="#f1f5f9" stroke-width="1"/>

<!-- flow 3 image -->
<rect x="974" y="693" width="18" height="18" rx="4" fill="#fef3c7" stroke="#d97706" stroke-width="1.2"/>
<text x="983" y="706" text-anchor="middle" font-size="9" font-weight="800" fill="#b45309">3</text>
<text x="1000" y="706" font-size="9" font-weight="700" fill="#b45309">Image Upload</text>
<text x="1000" y="719" font-size="8.5" fill="#475569">Flutter &#x2192; Firebase Storage &#x2192; Flutter (URL)</text>
<text x="1000" y="732" font-size="8.5" fill="#475569">Flutter &#x2192; Backend &#x2192; Cloud SQL (store URL)</text>
<text x="1000" y="745" font-size="8.5" fill="#94a3b8" font-style="italic">Images never pass through backend</text>

<line x1="974" y1="755" x2="1262" y2="755" stroke="#f1f5f9" stroke-width="1"/>

<!-- flow 4 chat -->
<rect x="974" y="763" width="18" height="18" rx="4" fill="#e0f2fe" stroke="#0284c7" stroke-width="1.2"/>
<text x="983" y="776" text-anchor="middle" font-size="9" font-weight="800" fill="#0369a1">4</text>
<text x="1000" y="776" font-size="9" font-weight="700" fill="#0369a1">Chat (real-time)</text>
<text x="1000" y="789" font-size="8.5" fill="#475569">Flutter &#x2192; Firestore (write message)</text>
<text x="1000" y="802" font-size="8.5" fill="#475569">Firestore &#x2192; Flutter (real-time listener)</text>
<text x="1000" y="815" font-size="8.5" fill="#475569">Backend &#x2192; Firestore (metadata sync)</text>
<text x="1000" y="828" font-size="8.5" fill="#94a3b8" font-style="italic">Chat bypasses backend entirely</text>

<line x1="974" y1="838" x2="1262" y2="838" stroke="#f1f5f9" stroke-width="1"/>

<!-- flow 5 matching -->
<rect x="974" y="846" width="18" height="18" rx="4" fill="#f3e8ff" stroke="#7c3aed" stroke-width="1.2"/>
<text x="983" y="859" text-anchor="middle" font-size="9" font-weight="800" fill="#6d28d9">5</text>
<text x="1000" y="859" font-size="9" font-weight="700" fill="#6d28d9">Matching + AI Scoring</text>
<text x="1000" y="872" font-size="8.5" fill="#475569">Flutter &#x2192; Backend (request suggestions)</text>
<text x="1000" y="885" font-size="8.5" fill="#475569">Backend &#x2192; Cloud SQL (fetch data)</text>
<text x="1000" y="898" font-size="8.5" fill="#475569">Backend &#x2192; AI Provider &#x2192; Backend (score)</text>
<text x="1000" y="911" font-size="8.5" fill="#475569">Backend &#x2192; Cloud SQL (store match)</text>
<text x="1000" y="924" font-size="8.5" fill="#475569">Backend &#x2192; Firestore (push event)</text>
<text x="1000" y="937" font-size="8.5" fill="#475569">Backend &#x2192; Flutter (return suggestions)</text>

<!-- key notes band at the bottom -->
<rect x="30" y="940" width="910" height="30" rx="7" fill="rgba(248,250,252,0.9)" stroke="#cbd5e1" stroke-width="1"/>
<text x="50" y="959" font-size="8.5" fill="#64748b" font-style="italic">&#x25B8; Auth is handled by Firebase, not the backend.  &#x25B8; Chat bypasses the backend.  &#x25B8; All business logic flows through Cloud Run.  &#x25B8; Cloud SQL is the source of truth.</text>

</svg>
