<svg width="1400" height="1120" viewBox="0 0 1400 1120" xmlns="http://www.w3.org/2000/svg" font-family="'JetBrains Mono', 'Courier New', monospace">
<defs>
  <marker id="arr-green" markerWidth="8" markerHeight="6" refX="7" refY="3" orient="auto"><polygon points="0 0,8 3,0 6" fill="#059669"/></marker>
  <marker id="arr-purple" markerWidth="8" markerHeight="6" refX="7" refY="3" orient="auto"><polygon points="0 0,8 3,0 6" fill="#7c3aed"/></marker>
  <marker id="arr-blue" markerWidth="8" markerHeight="6" refX="7" refY="3" orient="auto"><polygon points="0 0,8 3,0 6" fill="#2563eb"/></marker>
  <marker id="arr-cyan" markerWidth="8" markerHeight="6" refX="7" refY="3" orient="auto"><polygon points="0 0,8 3,0 6" fill="#0284c7"/></marker>
  <marker id="arr-yellow" markerWidth="8" markerHeight="6" refX="7" refY="3" orient="auto"><polygon points="0 0,8 3,0 6" fill="#d97706"/></marker>
  <marker id="arr-violet" markerWidth="8" markerHeight="6" refX="7" refY="3" orient="auto"><polygon points="0 0,8 3,0 6" fill="#4f46e5"/></marker>
  <marker id="arr-slate" markerWidth="8" markerHeight="6" refX="7" refY="3" orient="auto"><polygon points="0 0,8 3,0 6" fill="#475569"/></marker>

  <pattern id="dots" width="24" height="24" patternUnits="userSpaceOnUse">
    <circle cx="1" cy="1" r="0.9" fill="#94a3b8" opacity="0.22"/>
  </pattern>

  <linearGradient id="g-flutter" x1="0" y1="0" x2="0" y2="1">
    <stop offset="0%" stop-color="#eff6ff"/><stop offset="100%" stop-color="#dbeafe"/>
  </linearGradient>
  <linearGradient id="g-backend" x1="0" y1="0" x2="0" y2="1">
    <stop offset="0%" stop-color="#f0fdf4"/><stop offset="100%" stop-color="#dcfce7"/>
  </linearGradient>
  <linearGradient id="g-domain" x1="0" y1="0" x2="0" y2="1">
    <stop offset="0%" stop-color="#f0fdf4"/><stop offset="100%" stop-color="#dcfce7"/>
  </linearGradient>
  <linearGradient id="g-adapter" x1="0" y1="0" x2="0" y2="1">
    <stop offset="0%" stop-color="#fdf4ff"/><stop offset="100%" stop-color="#f3e8ff"/>
  </linearGradient>
  <linearGradient id="g-provider" x1="0" y1="0" x2="0" y2="1">
    <stop offset="0%" stop-color="#eef2ff"/><stop offset="100%" stop-color="#e0e7ff"/>
  </linearGradient>
  <linearGradient id="g-sql" x1="0" y1="0" x2="0" y2="1">
    <stop offset="0%" stop-color="#f0f9ff"/><stop offset="100%" stop-color="#e0f2fe"/>
  </linearGradient>
  <linearGradient id="g-firestore" x1="0" y1="0" x2="0" y2="1">
    <stop offset="0%" stop-color="#fffbeb"/><stop offset="100%" stop-color="#fef3c7"/>
  </linearGradient>
</defs>

<!-- BG -->
<rect width="1400" height="1120" fill="#e2e8f0"/>
<rect width="1400" height="1120" fill="url(#dots)"/>

<!-- ══════════════════════════════════════ -->
<!-- TITLE                               -->
<!-- ══════════════════════════════════════ -->
<text x="700" y="40" text-anchor="middle" font-size="23" font-weight="900" fill="#0f172a" letter-spacing="-1">
  <tspan fill="#0f172a">Safe</tspan><tspan fill="#db2777">match</tspan>
</text>
<text x="700" y="57" text-anchor="middle" font-size="9.5" fill="#64748b" letter-spacing="3">AI INTEGRATION DIAGRAM</text>

<!-- ══════════════════════════════════════════════════════════════════ -->
<!-- COLUMN HEADERS                                                  -->
<!-- ══════════════════════════════════════════════════════════════════ -->

<!-- Col 1: Client + Backend  x:30–270 -->
<!-- Col 2: Domain Ports      x:300–560 -->
<!-- Col 3: Infra Adapters    x:590–850 -->
<!-- Col 4: AI Provider       x:880–1140 -->
<!-- Col 5: Persistence       x:1170–1370 -->

<!-- zone backgrounds -->
<rect x="30" y="70" width="246" height="960" rx="10" fill="rgba(239,246,255,0.45)" stroke="#bfdbfe" stroke-width="1.2" stroke-dasharray="5,4"/>
<text x="153" y="90" text-anchor="middle" font-size="9" font-weight="700" fill="#1d4ed8" letter-spacing="1.5">CLIENT / API</text>

<rect x="292" y="70" width="256" height="960" rx="10" fill="rgba(240,253,244,0.5)" stroke="#86efac" stroke-width="1.5"/>
<text x="420" y="90" text-anchor="middle" font-size="9" font-weight="700" fill="#059669" letter-spacing="1.5">DOMAIN PORTS</text>

<rect x="564" y="70" width="256" height="960" rx="10" fill="rgba(253,244,255,0.5)" stroke="#d8b4fe" stroke-width="1.5" stroke-dasharray="5,4"/>
<text x="692" y="90" text-anchor="middle" font-size="9" font-weight="700" fill="#7c3aed" letter-spacing="1.5">INFRA ADAPTERS</text>

<rect x="836" y="70" width="256" height="960" rx="10" fill="rgba(238,242,255,0.5)" stroke="#a5b4fc" stroke-width="1.5" stroke-dasharray="6,4"/>
<text x="964" y="90" text-anchor="middle" font-size="9" font-weight="700" fill="#4338ca" letter-spacing="1.5">AI PROVIDER</text>

<rect x="1108" y="70" width="262" height="960" rx="10" fill="rgba(240,249,255,0.45)" stroke="#bae6fd" stroke-width="1.2" stroke-dasharray="5,4"/>
<text x="1239" y="90" text-anchor="middle" font-size="9" font-weight="700" fill="#0369a1" letter-spacing="1.5">PERSISTENCE</text>

<!-- ══════════════════════════════════════════════════════════════════ -->
<!-- COLUMN 1 — CLIENT + API + DOMAIN SERVICE                        -->
<!-- ══════════════════════════════════════════════════════════════════ -->

<!-- Flutter App  y:106 -->
<rect x="42" y="106" width="222" height="128" rx="10" fill="url(#g-flutter)" stroke="#2563eb" stroke-width="1.8"/>
<rect x="42" y="106" width="222" height="28" rx="10" fill="rgba(37,99,235,0.1)"/>
<rect x="42" y="124" width="222" height="10" fill="rgba(37,99,235,0.1)"/>
<text x="153" y="126" text-anchor="middle" font-size="12.5" font-weight="800" fill="#1d4ed8">Flutter App</text>
<line x1="42" y1="134" x2="264" y2="134" stroke="rgba(37,99,235,0.15)" stroke-width="1"/>
<text x="58" y="152" font-size="9" fill="#1d4ed8">&#x25B8; GET /match/suggestions</text>
<text x="58" y="167" font-size="9" fill="#1d4ed8">&#x25B8; POST message / image</text>
<text x="58" y="182" font-size="9" fill="#1d4ed8">&#x25B8; Firebase ID token header</text>
<text x="153" y="224" text-anchor="middle" font-size="8.5" fill="#93c5fd" font-style="italic">iOS &amp; Android</text>

<!-- arrow Flutter → Backend API -->
<line x1="153" y1="234" x2="153" y2="262" stroke="#2563eb" stroke-width="2" marker-end="url(#arr-blue)"/>
<rect x="92" y="244" width="122" height="16" rx="3" fill="rgba(239,246,255,0.92)"/>
<text x="153" y="256" text-anchor="middle" font-size="8.5" fill="#1d4ed8" font-weight="700">request + token</text>

<!-- Backend API Layer  y:262 -->
<rect x="42" y="262" width="222" height="120" rx="10" fill="url(#g-backend)" stroke="#059669" stroke-width="1.8"/>
<rect x="42" y="262" width="222" height="28" rx="10" fill="rgba(5,150,105,0.1)"/>
<rect x="42" y="280" width="222" height="10" fill="rgba(5,150,105,0.1)"/>
<text x="153" y="282" text-anchor="middle" font-size="12.5" font-weight="800" fill="#065f46">Backend API</text>
<text x="153" y="296" text-anchor="middle" font-size="8.5" fill="#6ee7b7">Cloud Run · Spring Boot</text>
<line x1="42" y1="300" x2="264" y2="300" stroke="rgba(5,150,105,0.15)" stroke-width="1"/>
<text x="58" y="317" font-size="9" fill="#047857">&#x25B8; MatchController</text>
<text x="58" y="332" font-size="9" fill="#047857">&#x25B8; ModerationController</text>
<text x="58" y="347" font-size="9" fill="#047857">&#x25B8; Validates token · routes</text>
<text x="153" y="372" text-anchor="middle" font-size="8.5" fill="#6ee7b7" font-style="italic">no business logic</text>

<!-- arrow API → Domain Service -->
<line x1="153" y1="382" x2="153" y2="410" stroke="#059669" stroke-width="2" marker-end="url(#arr-green)"/>
<rect x="76" y="392" width="154" height="16" rx="3" fill="rgba(240,253,244,0.92)"/>
<text x="153" y="404" text-anchor="middle" font-size="8.5" fill="#047857" font-weight="700">call matchService()</text>

<!-- Domain Service  y:410 -->
<rect x="42" y="410" width="222" height="160" rx="10" fill="url(#g-domain)" stroke="#059669" stroke-width="2"/>
<rect x="42" y="410" width="222" height="28" rx="10" fill="rgba(5,150,105,0.12)"/>
<rect x="42" y="428" width="222" height="10" fill="rgba(5,150,105,0.12)"/>
<text x="153" y="430" text-anchor="middle" font-size="12.5" font-weight="800" fill="#065f46">Domain Service</text>
<line x1="42" y1="438" x2="264" y2="438" stroke="rgba(5,150,105,0.15)" stroke-width="1"/>
<text x="58" y="456" font-size="9" fill="#047857">&#x25B8; MatchService</text>
<text x="58" y="471" font-size="9" fill="#047857">&#x25B8; ModerationService</text>
<text x="58" y="486" font-size="9" fill="#047857">&#x25B8; Calls ports (interfaces)</text>
<text x="58" y="501" font-size="9" fill="#047857">&#x25B8; Applies business rules</text>
<text x="58" y="516" font-size="9" fill="#047857">&#x25B8; Normalizes AI scores</text>
<text x="153" y="560" text-anchor="middle" font-size="8.5" fill="#6ee7b7" font-style="italic">never knows AI provider</text>

<!-- arrow Domain → response back to API -->
<path d="M 42 480 Q 20 480 20 380 Q 20 282 42 282" fill="none" stroke="#2563eb" stroke-width="1.5" stroke-dasharray="5,3" marker-end="url(#arr-blue)"/>
<text x="4" y="400" font-size="8.5" fill="#1d4ed8" transform="rotate(-90,4,400)">response</text>

<!-- Moderation Decision Box  y:590 -->
<rect x="42" y="590" width="222" height="144" rx="10" fill="rgba(248,250,252,0.95)" stroke="#cbd5e1" stroke-width="1.4"/>
<text x="153" y="611" text-anchor="middle" font-size="11" font-weight="800" fill="#1e293b">Moderation Decision</text>
<line x1="56" y1="617" x2="250" y2="617" stroke="#e2e8f0" stroke-width="1"/>
<rect x="58" y="625" width="68" height="20" rx="4" fill="#dcfce7" stroke="#059669" stroke-width="1"/>
<text x="92" y="639" text-anchor="middle" font-size="9" font-weight="700" fill="#065f46">ALLOWED</text>
<text x="134" y="639" font-size="8.5" fill="#475569">&#x2192; forward to Firestore</text>
<rect x="58" y="653" width="68" height="20" rx="4" fill="#fef9c3" stroke="#d97706" stroke-width="1"/>
<text x="92" y="667" text-anchor="middle" font-size="9" font-weight="700" fill="#b45309">FLAGGED</text>
<text x="134" y="667" font-size="8.5" fill="#475569">&#x2192; warn · notify</text>
<rect x="58" y="681" width="68" height="20" rx="4" fill="#fee2e2" stroke="#dc2626" stroke-width="1"/>
<text x="92" y="695" text-anchor="middle" font-size="9" font-weight="700" fill="#dc2626">BLOCKED</text>
<text x="134" y="695" font-size="8.5" fill="#475569">&#x2192; reject request</text>
<text x="153" y="724" text-anchor="middle" font-size="8.5" fill="#94a3b8" font-style="italic">Domain decides, not adapter</text>

<!-- arrow Domain → moderation decision -->
<line x1="153" y1="570" x2="153" y2="590" stroke="#059669" stroke-width="1.5" stroke-dasharray="4,3" marker-end="url(#arr-green)"/>

<!-- ══════════════════════════════════════════════════════════════════ -->
<!-- COLUMN 2 — DOMAIN PORTS                                         -->
<!-- ══════════════════════════════════════════════════════════════════ -->

<!-- AiScoringPort  y:106 -->
<rect x="304" y="106" width="232" height="118" rx="10" fill="#f0fdf4" stroke="#059669" stroke-width="2"/>
<rect x="304" y="106" width="232" height="28" rx="10" fill="rgba(5,150,105,0.1)"/>
<rect x="304" y="124" width="232" height="10" fill="rgba(5,150,105,0.1)"/>
<text x="420" y="126" text-anchor="middle" font-size="12.5" font-weight="800" fill="#065f46">AiScoringPort</text>
<line x1="304" y1="134" x2="536" y2="134" stroke="rgba(5,150,105,0.15)" stroke-width="1"/>
<text x="320" y="153" font-size="9" fill="#047857">scoreCompatibility(</text>
<text x="336" y="168" font-size="9" fill="#047857">UserProfile a, UserProfile b)</text>
<text x="320" y="185" font-size="9" fill="#047857">recommendationScore(userId)</text>
<text x="420" y="214" text-anchor="middle" font-size="8.5" fill="#10b981" font-style="italic">interface — domain layer</text>

<!-- AiModerationPort  y:258 -->
<rect x="304" y="258" width="232" height="128" rx="10" fill="#f0fdf4" stroke="#059669" stroke-width="2"/>
<rect x="304" y="258" width="232" height="28" rx="10" fill="rgba(5,150,105,0.1)"/>
<rect x="304" y="276" width="232" height="10" fill="rgba(5,150,105,0.1)"/>
<text x="420" y="278" text-anchor="middle" font-size="12.5" font-weight="800" fill="#065f46">AiModerationPort</text>
<line x1="304" y1="286" x2="536" y2="286" stroke="rgba(5,150,105,0.15)" stroke-width="1"/>
<text x="320" y="305" font-size="9" fill="#047857">moderateText(String message)</text>
<text x="320" y="320" font-size="9" fill="#047857">moderateImage(ImageMetadata)</text>
<text x="320" y="335" font-size="9" fill="#047857">Returns: ALLOWED / FLAGGED</text>
<text x="320" y="350" font-size="9" fill="#047857">         / BLOCKED</text>
<text x="420" y="376" text-anchor="middle" font-size="8.5" fill="#10b981" font-style="italic">interface — domain layer</text>

<!-- AiExplanationPort  y:420 -->
<rect x="304" y="420" width="232" height="118" rx="10" fill="#f0fdf4" stroke="#059669" stroke-width="2"/>
<rect x="304" y="420" width="232" height="28" rx="10" fill="rgba(5,150,105,0.1)"/>
<rect x="304" y="438" width="232" height="10" fill="rgba(5,150,105,0.1)"/>
<text x="420" y="440" text-anchor="middle" font-size="12.5" font-weight="800" fill="#065f46">AiExplanationPort</text>
<line x1="304" y1="448" x2="536" y2="448" stroke="rgba(5,150,105,0.15)" stroke-width="1"/>
<text x="320" y="467" font-size="9" fill="#047857">generateMatchExplanation(</text>
<text x="336" y="482" font-size="9" fill="#047857">Match match)</text>
<text x="320" y="499" font-size="9" fill="#047857">Returns: String explanation</text>
<text x="420" y="526" text-anchor="middle" font-size="8.5" fill="#10b981" font-style="italic">optional — domain layer</text>

<!-- Domain principle box  y:562 -->
<rect x="304" y="562" width="232" height="86" rx="10" fill="rgba(240,253,244,0.7)" stroke="#86efac" stroke-width="1.2"/>
<text x="420" y="582" text-anchor="middle" font-size="10" font-weight="800" fill="#065f46">Domain Principle</text>
<line x1="318" y1="588" x2="522" y2="588" stroke="#a7f3d0" stroke-width="1"/>
<text x="320" y="604" font-size="8.5" fill="#047857">Domain defines WHAT is needed.</text>
<text x="320" y="619" font-size="8.5" fill="#047857">Infrastructure decides HOW.</text>
<text x="320" y="634" font-size="8.5" fill="#047857">Swap provider = swap adapter only.</text>

<!-- ══════════════════════════════════════════════════════════════════ -->
<!-- COLUMN 3 — INFRA ADAPTERS                                       -->
<!-- ══════════════════════════════════════════════════════════════════ -->

<!-- AiScoringAdapter  y:106 -->
<rect x="576" y="106" width="232" height="148" rx="10" fill="url(#g-adapter)" stroke="#7c3aed" stroke-width="1.8"/>
<rect x="576" y="106" width="232" height="28" rx="10" fill="rgba(124,58,237,0.1)"/>
<rect x="576" y="124" width="232" height="10" fill="rgba(124,58,237,0.1)"/>
<text x="692" y="126" text-anchor="middle" font-size="12.5" font-weight="800" fill="#6d28d9">AiScoringAdapter</text>
<line x1="576" y1="134" x2="808" y2="134" stroke="rgba(124,58,237,0.15)" stroke-width="1"/>
<text x="592" y="153" font-size="9" fill="#7c3aed">&#x25B8; Builds scoring prompt</text>
<text x="592" y="168" font-size="9" fill="#7c3aed">&#x25B8; Calls AI provider HTTPS</text>
<text x="592" y="183" font-size="9" fill="#7c3aed">&#x25B8; Parses JSON response</text>
<text x="592" y="198" font-size="9" fill="#7c3aed">&#x25B8; Maps to domain model</text>
<text x="592" y="213" font-size="9" fill="#7c3aed">&#x25B8; API key from Secret Manager</text>
<text x="692" y="244" text-anchor="middle" font-size="8.5" fill="#a78bfa" font-style="italic">implements AiScoringPort</text>

<!-- AiModerationAdapter  y:288 -->
<rect x="576" y="288" width="232" height="148" rx="10" fill="url(#g-adapter)" stroke="#7c3aed" stroke-width="1.8"/>
<rect x="576" y="288" width="232" height="28" rx="10" fill="rgba(124,58,237,0.1)"/>
<rect x="576" y="306" width="232" height="10" fill="rgba(124,58,237,0.1)"/>
<text x="692" y="308" text-anchor="middle" font-size="12.5" font-weight="800" fill="#6d28d9">AiModerationAdapter</text>
<line x1="576" y1="316" x2="808" y2="316" stroke="rgba(124,58,237,0.15)" stroke-width="1"/>
<text x="592" y="335" font-size="9" fill="#7c3aed">&#x25B8; Sends text / image content</text>
<text x="592" y="350" font-size="9" fill="#7c3aed">&#x25B8; Calls moderation endpoint</text>
<text x="592" y="365" font-size="9" fill="#7c3aed">&#x25B8; Interprets safety categories</text>
<text x="592" y="380" font-size="9" fill="#7c3aed">&#x25B8; Returns domain result</text>
<text x="592" y="395" font-size="9" fill="#7c3aed">&#x25B8; API key from Secret Manager</text>
<text x="692" y="426" text-anchor="middle" font-size="8.5" fill="#a78bfa" font-style="italic">implements AiModerationPort</text>

<!-- AiExplanationAdapter  y:470 -->
<rect x="576" y="470" width="232" height="148" rx="10" fill="url(#g-adapter)" stroke="#7c3aed" stroke-width="1.8"/>
<rect x="576" y="470" width="232" height="28" rx="10" fill="rgba(124,58,237,0.1)"/>
<rect x="576" y="488" width="232" height="10" fill="rgba(124,58,237,0.1)"/>
<text x="692" y="490" text-anchor="middle" font-size="12.5" font-weight="800" fill="#6d28d9">AiExplanationAdapter</text>
<line x1="576" y1="498" x2="808" y2="498" stroke="rgba(124,58,237,0.15)" stroke-width="1"/>
<text x="592" y="517" font-size="9" fill="#7c3aed">&#x25B8; Builds explanation prompt</text>
<text x="592" y="532" font-size="9" fill="#7c3aed">&#x25B8; Calls completions endpoint</text>
<text x="592" y="547" font-size="9" fill="#7c3aed">&#x25B8; Formats natural language text</text>
<text x="592" y="562" font-size="9" fill="#7c3aed">&#x25B8; Returns explanation string</text>
<text x="592" y="577" font-size="9" fill="#7c3aed">&#x25B8; API key from Secret Manager</text>
<text x="692" y="608" text-anchor="middle" font-size="8.5" fill="#a78bfa" font-style="italic">implements AiExplanationPort</text>

<!-- ══════════════════════════════════════════════════════════════════ -->
<!-- COLUMN 4 — AI PROVIDER                                          -->
<!-- ══════════════════════════════════════════════════════════════════ -->

<!-- Scoring Endpoint  y:106 -->
<rect x="848" y="106" width="232" height="148" rx="10" fill="url(#g-provider)" stroke="#4f46e5" stroke-width="1.8"/>
<rect x="848" y="106" width="232" height="28" rx="10" fill="rgba(79,70,229,0.1)"/>
<rect x="848" y="124" width="232" height="10" fill="rgba(79,70,229,0.1)"/>
<text x="964" y="126" text-anchor="middle" font-size="12.5" font-weight="800" fill="#3730a3">Scoring Endpoint</text>
<line x1="848" y1="134" x2="1080" y2="134" stroke="rgba(79,70,229,0.15)" stroke-width="1"/>
<text x="864" y="153" font-size="9" fill="#4338ca">POST /v1/chat/completions</text>
<text x="864" y="168" font-size="9" fill="#4338ca">&#x25B8; Structured profile prompt</text>
<text x="864" y="183" font-size="9" fill="#4338ca">&#x25B8; Returns compatibility_score</text>
<text x="864" y="198" font-size="9" fill="#4338ca">&#x25B8; Returns dimensions JSON</text>
<text x="864" y="213" font-size="9" fill="#4338ca">&#x25B8; Returns explanation string</text>
<text x="964" y="244" text-anchor="middle" font-size="8.5" fill="#818cf8" font-style="italic">OpenAI / Vertex AI</text>

<!-- Moderation Endpoint  y:288 -->
<rect x="848" y="288" width="232" height="148" rx="10" fill="url(#g-provider)" stroke="#4f46e5" stroke-width="1.8"/>
<rect x="848" y="288" width="232" height="28" rx="10" fill="rgba(79,70,229,0.1)"/>
<rect x="848" y="306" width="232" height="10" fill="rgba(79,70,229,0.1)"/>
<text x="964" y="308" text-anchor="middle" font-size="12.5" font-weight="800" fill="#3730a3">Moderation Endpoint</text>
<line x1="848" y1="316" x2="1080" y2="316" stroke="rgba(79,70,229,0.15)" stroke-width="1"/>
<text x="864" y="335" font-size="9" fill="#4338ca">POST /v1/moderations</text>
<text x="864" y="350" font-size="9" fill="#4338ca">&#x25B8; Text or image content</text>
<text x="864" y="365" font-size="9" fill="#4338ca">&#x25B8; Returns safety categories</text>
<text x="864" y="380" font-size="9" fill="#4338ca">&#x25B8; hate / self-harm / violence</text>
<text x="864" y="395" font-size="9" fill="#4338ca">&#x25B8; score per category</text>
<text x="964" y="426" text-anchor="middle" font-size="8.5" fill="#818cf8" font-style="italic">OpenAI / Vertex AI</text>

<!-- Explanation Endpoint  y:470 -->
<rect x="848" y="470" width="232" height="148" rx="10" fill="url(#g-provider)" stroke="#4f46e5" stroke-width="1.8"/>
<rect x="848" y="470" width="232" height="28" rx="10" fill="rgba(79,70,229,0.1)"/>
<rect x="848" y="488" width="232" height="10" fill="rgba(79,70,229,0.1)"/>
<text x="964" y="490" text-anchor="middle" font-size="12.5" font-weight="800" fill="#3730a3">Explanation Endpoint</text>
<line x1="848" y1="498" x2="1080" y2="498" stroke="rgba(79,70,229,0.15)" stroke-width="1"/>
<text x="864" y="517" font-size="9" fill="#4338ca">POST /v1/chat/completions</text>
<text x="864" y="532" font-size="9" fill="#4338ca">&#x25B8; Match profile context</text>
<text x="864" y="547" font-size="9" fill="#4338ca">&#x25B8; Returns natural language</text>
<text x="864" y="562" font-size="9" fill="#4338ca">&#x25B8; "Vous partagez les mêmes…"</text>
<text x="864" y="577" font-size="9" fill="#4338ca">&#x25B8; Optional feature</text>
<text x="964" y="608" text-anchor="middle" font-size="8.5" fill="#818cf8" font-style="italic">OpenAI / Vertex AI</text>

<!-- AI Score Response box  y:660 -->
<rect x="848" y="648" width="232" height="168" rx="10" fill="rgba(248,250,252,0.95)" stroke="#cbd5e1" stroke-width="1.4"/>
<text x="964" y="668" text-anchor="middle" font-size="11" font-weight="800" fill="#1e293b">Score Response</text>
<line x1="862" y1="674" x2="1066" y2="674" stroke="#e2e8f0" stroke-width="1"/>
<text x="866" y="692" font-size="8.5" fill="#475569">{</text>
<text x="878" y="708" font-size="8.5" fill="#059669">"compatibility_score":</text>
<text x="878" y="723" font-size="8.5" fill="#2563eb">  0.82,</text>
<text x="878" y="738" font-size="8.5" fill="#059669">"dimensions": {</text>
<text x="892" y="753" font-size="8.5" fill="#7c3aed">  "values": 0.88,</text>
<text x="892" y="768" font-size="8.5" fill="#7c3aed">  "lifestyle": 0.75</text>
<text x="878" y="783" font-size="8.5" fill="#059669">},</text>
<text x="878" y="798" font-size="8.5" fill="#059669">"explanation": "..."</text>
<text x="866" y="808" font-size="8.5" fill="#475569">}</text>

<!-- ══════════════════════════════════════════════════════════════════ -->
<!-- COLUMN 5 — PERSISTENCE                                          -->
<!-- ══════════════════════════════════════════════════════════════════ -->

<!-- Cloud SQL  y:106 -->
<rect x="1120" y="106" width="238" height="158" rx="10" fill="url(#g-sql)" stroke="#0284c7" stroke-width="1.8"/>
<rect x="1120" y="106" width="238" height="28" rx="10" fill="rgba(2,132,199,0.1)"/>
<rect x="1120" y="124" width="238" height="10" fill="rgba(2,132,199,0.1)"/>
<text x="1239" y="126" text-anchor="middle" font-size="12.5" font-weight="800" fill="#0369a1">Cloud SQL</text>
<text x="1239" y="141" text-anchor="middle" font-size="8.5" fill="#7dd3fc">PostgreSQL</text>
<line x1="1120" y1="148" x2="1358" y2="148" stroke="rgba(2,132,199,0.15)" stroke-width="1"/>
<text x="1136" y="166" font-size="9" fill="#0369a1">&#x25B8; User + candidate profiles</text>
<text x="1136" y="181" font-size="9" fill="#0369a1">&#x25B8; Match results + scores</text>
<text x="1136" y="196" font-size="9" fill="#0369a1">&#x25B8; Moderation events</text>
<text x="1136" y="211" font-size="9" fill="#0369a1">&#x25B8; AI scoring history</text>
<text x="1239" y="254" text-anchor="middle" font-size="8.5" fill="#7dd3fc" font-style="italic">source of truth · private VPC</text>

<!-- Firestore  y:296 -->
<rect x="1120" y="296" width="238" height="138" rx="10" fill="url(#g-firestore)" stroke="#d97706" stroke-width="1.8"/>
<rect x="1120" y="296" width="238" height="28" rx="10" fill="rgba(217,119,6,0.1)"/>
<rect x="1120" y="314" width="238" height="10" fill="rgba(217,119,6,0.1)"/>
<text x="1239" y="316" text-anchor="middle" font-size="12.5" font-weight="800" fill="#b45309">Firestore</text>
<line x1="1120" y1="324" x2="1358" y2="324" stroke="rgba(217,119,6,0.15)" stroke-width="1"/>
<text x="1136" y="342" font-size="9" fill="#b45309">&#x25B8; Match event pushed</text>
<text x="1136" y="357" font-size="9" fill="#b45309">&#x25B8; Notification trigger</text>
<text x="1136" y="372" font-size="9" fill="#b45309">&#x25B8; Real-time to Flutter</text>
<text x="1239" y="424" text-anchor="middle" font-size="8.5" fill="#fbbf24" font-style="italic">real-time sync</text>

<!-- ══════════════════════════════════════════════════════════════════ -->
<!-- HORIZONTAL ARROWS between columns                               -->
<!-- ══════════════════════════════════════════════════════════════════ -->

<!-- Domain Service → AiScoringPort -->
<line x1="264" y1="455" x2="304" y2="170" stroke="#059669" stroke-width="1.8" marker-end="url(#arr-green)"/>
<rect x="216" y="306" width="102" height="16" rx="3" fill="rgba(240,253,244,0.92)"/>
<text x="267" y="318" text-anchor="middle" font-size="8.5" fill="#047857" font-weight="700">scoreCompatibility()</text>

<!-- Domain Service → AiModerationPort -->
<line x1="264" y1="480" x2="304" y2="322" stroke="#059669" stroke-width="1.8" marker-end="url(#arr-green)"/>
<rect x="214" y="388" width="102" height="16" rx="3" fill="rgba(240,253,244,0.92)"/>
<text x="265" y="400" text-anchor="middle" font-size="8.5" fill="#047857" font-weight="700">moderateText/Image()</text>

<!-- Domain Service → AiExplanationPort -->
<line x1="264" y1="505" x2="304" y2="480" stroke="#059669" stroke-width="1.8" marker-end="url(#arr-green)"/>

<!-- AiScoringPort → AiScoringAdapter -->
<line x1="536" y1="170" x2="576" y2="180" stroke="#7c3aed" stroke-width="1.8" marker-end="url(#arr-purple)"/>
<rect x="484" y="162" width="118" height="16" rx="3" fill="rgba(253,244,255,0.92)"/>
<text x="543" y="174" text-anchor="middle" font-size="8.5" fill="#6d28d9" font-weight="700">implements port</text>

<!-- AiModerationPort → AiModerationAdapter -->
<line x1="536" y1="322" x2="576" y2="362" stroke="#7c3aed" stroke-width="1.8" marker-end="url(#arr-purple)"/>

<!-- AiExplanationPort → AiExplanationAdapter -->
<line x1="536" y1="480" x2="576" y2="540" stroke="#7c3aed" stroke-width="1.8" marker-end="url(#arr-purple)"/>

<!-- AiScoringAdapter → Scoring Endpoint -->
<line x1="808" y1="180" x2="848" y2="180" stroke="#4f46e5" stroke-width="1.8" marker-end="url(#arr-violet)"/>
<rect x="760" y="166" width="130" height="16" rx="3" fill="rgba(238,242,255,0.92)"/>
<text x="825" y="178" text-anchor="middle" font-size="8.5" fill="#4338ca" font-weight="700">POST scoring prompt</text>

<!-- Scoring Endpoint → AiScoringAdapter (response) -->
<path d="M 848 210 Q 820 226 808 210" fill="none" stroke="#4f46e5" stroke-width="1.5" stroke-dasharray="5,3" marker-end="url(#arr-violet)"/>
<rect x="760" y="212" width="100" height="16" rx="3" fill="rgba(238,242,255,0.92)"/>
<text x="810" y="224" text-anchor="middle" font-size="8.5" fill="#4338ca">score JSON</text>

<!-- AiModerationAdapter → Moderation Endpoint -->
<line x1="808" y1="362" x2="848" y2="362" stroke="#4f46e5" stroke-width="1.8" marker-end="url(#arr-violet)"/>
<rect x="760" y="348" width="130" height="16" rx="3" fill="rgba(238,242,255,0.92)"/>
<text x="825" y="360" text-anchor="middle" font-size="8.5" fill="#4338ca" font-weight="700">POST content</text>

<!-- Moderation Endpoint → AiModerationAdapter (response) -->
<path d="M 848 392 Q 820 406 808 392" fill="none" stroke="#4f46e5" stroke-width="1.5" stroke-dasharray="5,3" marker-end="url(#arr-violet)"/>
<rect x="758" y="394" width="100" height="16" rx="3" fill="rgba(238,242,255,0.92)"/>
<text x="808" y="406" text-anchor="middle" font-size="8.5" fill="#4338ca">categories</text>

<!-- AiExplanationAdapter → Explanation Endpoint -->
<line x1="808" y1="540" x2="848" y2="540" stroke="#4f46e5" stroke-width="1.8" marker-end="url(#arr-violet)"/>
<rect x="760" y="526" width="130" height="16" rx="3" fill="rgba(238,242,255,0.92)"/>
<text x="825" y="538" text-anchor="middle" font-size="8.5" fill="#4338ca" font-weight="700">POST explanation prompt</text>

<!-- Explanation Endpoint → AiExplanationAdapter (response) -->
<path d="M 848 570 Q 820 584 808 570" fill="none" stroke="#4f46e5" stroke-width="1.5" stroke-dasharray="5,3" marker-end="url(#arr-violet)"/>
<rect x="758" y="572" width="100" height="16" rx="3" fill="rgba(238,242,255,0.92)"/>
<text x="808" y="584" text-anchor="middle" font-size="8.5" fill="#4338ca">NL explanation</text>

<!-- Domain Service → Cloud SQL (via right side) -->
<path d="M 264 465 Q 1090 465 1120 185" fill="none" stroke="#0284c7" stroke-width="1.6" stroke-dasharray="5,3" marker-end="url(#arr-cyan)"/>
<rect x="640" y="452" width="138" height="16" rx="3" fill="rgba(240,249,255,0.92)"/>
<text x="709" y="464" text-anchor="middle" font-size="8.5" fill="#0369a1" font-weight="700">store match / result</text>

<!-- Domain Service → Firestore -->
<path d="M 264 490 Q 1090 490 1120 365" fill="none" stroke="#d97706" stroke-width="1.5" stroke-dasharray="5,3" marker-end="url(#arr-yellow)"/>
<rect x="646" y="477" width="110" height="16" rx="3" fill="rgba(255,251,235,0.92)"/>
<text x="701" y="489" text-anchor="middle" font-size="8.5" fill="#b45309" font-weight="700">push match event</text>

<!-- ══════════════════════════════════════════════════════════════════ -->
<!-- BOTTOM PRINCIPLES                                               -->
<!-- ══════════════════════════════════════════════════════════════════ -->
<rect x="30" y="1046" width="1340" height="46" rx="8" fill="rgba(248,250,252,0.9)" stroke="#cbd5e1" stroke-width="1.2"/>
<text x="50" y="1063" font-size="8.5" fill="#64748b" font-style="italic">&#x25B8; Domain never knows which AI provider is used — only the port interface.</text>
<text x="50" y="1079" font-size="8.5" fill="#64748b" font-style="italic">&#x25B8; Swapping OpenAI for Vertex AI = replace adapter only, zero domain changes.  &#x25B8; API key always from Secret Manager.  &#x25B8; Moderation decision made by domain service, not the adapter.</text>

</svg>
